<?xml version="1.0" standalone="no"?>
<!DOCTYPE svg PUBLIC "-//W3C//DTD SVG 20010904//EN"
 "http://www.w3.org/TR/2001/REC-SVG-20010904/DTD/svg10.dtd">
<svg version="1.0" xmlns="http://www.w3.org/2000/svg"
 width="600.000000pt" height="600.000000pt" viewBox="0 0 600.000000 600.000000"
 preserveAspectRatio="xMidYMid meet">

<g transform="translate(0.000000,600.000000) scale(0.100000,-0.100000)"
fill="#000000" stroke="none">
<path d="M3186 5340 c-71 -45 -147 -120 -167 -165 -36 -79 -19 -174 48 -262
39 -51 151 -138 260 -202 155 -91 233 -174 233 -247 0 -41 -43 -96 -111 -144
-61 -42 -212 -117 -284 -140 -68 -22 -219 -95 -292 -142 -136 -88 -247 -203
-308 -319 -19 -37 -35 -71 -35 -75 1 -5 10 9 22 31 31 60 154 174 244 227 101
59 207 105 376 162 156 52 229 83 306 132 250 158 254 359 12 521 -25 17 -97
55 -160 86 -225 109 -326 230 -291 347 16 54 78 128 144 174 51 35 64 46 54
46 -2 0 -24 -14 -51 -30z"/>
<path d="M3545 4871 c73 -44 142 -115 173 -179 23 -49 27 -69 27 -147 0 -80
-3 -97 -32 -157 -39 -83 -101 -151 -195 -214 -87 -58 -249 -141 -349 -179
-142 -54 -396 -172 -455 -213 -83 -56 -139 -117 -170 -185 -36 -81 -33 -185
11 -270 30 -60 131 -179 169 -199 11 -6 0 12 -27 41 -26 29 -63 86 -84 127
-31 64 -36 84 -37 147 0 63 4 80 33 134 18 34 43 70 54 80 21 18 21 18 5 -8
-44 -70 -59 -189 -35 -270 25 -81 126 -218 200 -271 l29 -21 -20 39 c-29 58
-45 140 -38 191 18 134 112 211 321 264 237 59 330 96 467 184 92 60 212 181
261 265 57 98 107 278 107 383 0 208 -144 392 -360 458 -105 32 -107 32 -55 0z"/>
<path d="M3896 3765 c-16 -31 -54 -79 -85 -107 -111 -102 -261 -150 -516 -167
-280 -19 -415 -86 -415 -207 0 -79 67 -142 187 -175 96 -27 107 -23 35 11
-116 54 -170 112 -156 165 15 62 107 90 350 110 233 18 346 53 472 144 57 42
125 136 146 205 25 77 17 86 -18 21z"/>
<path d="M2550 3023 c-141 -5 -374 -24 -421 -34 -56 -12 -59 -19 -59 -134 0
-255 80 -608 176 -784 19 -35 33 -65 31 -68 -3 -2 -45 -12 -95 -23 -115 -23
-182 -52 -182 -78 0 -18 17 -29 80 -56 29 -12 -117 6 -210 26 -264 56 -349
110 -243 154 43 18 223 55 408 83 146 22 109 27 -75 11 -313 -29 -470 -77
-470 -146 0 -66 230 -171 540 -248 496 -124 1072 -126 1645 -5 77 16 154 33
170 38 48 15 6 12 -60 -4 -339 -83 -844 -116 -1216 -80 -226 22 -576 90 -604
117 -7 7 -3 8 10 4 89 -25 505 -56 840 -63 425 -8 762 14 1075 68 63 11 142
24 175 29 71 9 236 63 283 92 47 28 58 55 36 80 -10 11 -34 26 -54 35 -40 17
-253 63 -290 62 -14 0 25 -11 85 -23 61 -13 128 -28 150 -35 52 -14 105 -47
105 -65 0 -51 -267 -127 -495 -141 -87 -5 -89 -5 -43 8 50 15 98 42 98 57 0
17 -51 48 -100 60 -28 7 -50 15 -50 19 0 3 21 17 47 31 27 14 70 40 96 58 27
17 53 32 57 32 5 0 10 4 12 8 2 4 30 28 63 54 178 136 273 299 263 451 -7 114
-78 210 -174 237 -53 15 -148 8 -196 -15 -18 -8 -24 -13 -13 -9 121 36 232 18
291 -48 87 -95 93 -225 16 -372 -60 -115 -182 -216 -378 -315 -109 -55 -208
-96 -202 -84 2 5 18 37 37 73 49 94 79 179 112 319 60 248 161 366 285 331 79
-22 116 -98 99 -199 -15 -87 -148 -239 -297 -339 -79 -52 -89 -66 -20 -27 207
120 343 274 359 404 5 42 1 59 -20 103 -35 69 -80 101 -156 106 -67 5 -105
-11 -165 -67 l-38 -36 5 105 6 105 -18 -135 c-26 -186 -48 -291 -83 -384 -55
-149 -95 -214 -197 -317 l-96 -96 -100 -32 c-352 -113 -650 -56 -822 157 -53
66 -125 214 -143 291 -41 177 41 343 215 432 145 75 257 99 464 99 254 0 666
26 748 46 62 16 1 37 -152 53 -243 26 -795 37 -1145 24z"/>
<path d="M3928 1783 c7 -3 16 -2 19 1 4 3 -2 6 -13 5 -11 0 -14 -3 -6 -6z"/>
<path d="M3888 1773 c7 -3 16 -2 19 1 4 3 -2 6 -13 5 -11 0 -14 -3 -6 -6z"/>
<path d="M2542 1433 c-52 -29 -129 -110 -189 -200 -67 -101 -93 -167 -93 -234
0 -43 5 -55 29 -80 49 -49 110 -35 192 46 50 48 95 123 82 136 -5 5 -25 -14
-51 -49 -44 -61 -84 -95 -127 -112 -22 -8 -30 -6 -52 16 -22 22 -24 30 -18 72
15 104 130 282 227 352 99 72 107 1 11 -101 -42 -45 -45 -51 -31 -65 13 -14
18 -13 46 11 38 32 82 118 82 161 0 60 -46 80 -108 47z"/>
<path d="M3002 1406 c-44 -51 -84 -112 -131 -199 -22 -44 -51 -87 -63 -96 -13
-11 -22 -31 -24 -52 -1 -19 -18 -79 -38 -134 -49 -136 -46 -205 8 -205 38 0
74 37 113 118 44 93 57 204 29 247 -9 14 -14 30 -11 35 10 16 68 27 93 18 27
-9 42 -3 42 17 0 25 -34 35 -75 24 -20 -6 -39 -8 -42 -5 -6 6 77 135 123 193
57 69 35 106 -24 39z m-129 -408 c-2 -82 -71 -232 -103 -225 -29 6 4 146 62
261 25 50 44 35 41 -36z"/>
<path d="M3206 1399 c-43 -47 -92 -122 -131 -199 -15 -30 -41 -69 -57 -87 -20
-20 -28 -38 -24 -48 3 -9 -5 -42 -18 -73 -53 -126 -71 -233 -44 -260 20 -20
57 -14 84 13 14 14 42 60 62 103 33 68 37 86 37 153 0 60 -4 81 -18 97 -17 19
-17 20 12 31 16 7 48 11 72 9 35 -2 44 0 47 14 5 25 -38 40 -79 28 -18 -5 -35
-8 -37 -5 -6 6 82 146 123 196 62 73 34 99 -29 28z m-128 -414 c-7 -101 -80
-237 -110 -207 -16 16 7 106 53 216 27 64 34 74 46 64 11 -9 14 -28 11 -73z"/>
<path d="M2704 1190 c-61 -24 -144 -169 -130 -225 10 -38 49 -43 90 -11 39 29
106 153 106 195 0 44 -23 59 -66 41z m26 -54 c0 -8 -11 -28 -25 -44 -14 -17
-23 -36 -20 -44 6 -15 -37 -68 -55 -68 -19 0 -10 57 16 96 41 62 84 93 84 60z"/>
<path d="M3514 1174 c-37 -20 -71 -52 -92 -87 -10 -17 -22 -25 -31 -22 -9 3
-32 -11 -57 -36 -47 -46 -105 -60 -112 -26 -2 10 3 17 11 17 25 0 93 57 110
93 22 45 13 67 -24 67 -57 0 -148 -110 -149 -181 0 -84 120 -74 200 17 l32 37
-7 -32 c-14 -65 38 -99 109 -71 33 12 116 88 116 106 0 22 -13 17 -60 -26 -46
-42 -79 -56 -105 -46 -25 9 -17 25 25 46 43 22 100 91 100 121 0 29 -32 40
-66 23z m-225 -81 c-29 -30 -59 -48 -59 -34 0 18 73 87 78 73 2 -7 -6 -25 -19
-39z m234 14 c-22 -27 -46 -46 -55 -47 -16 0 -7 17 23 48 34 35 62 34 32 -1z"/>
</g>
</svg>
